<svg xmlns="http://www.w3.org/2000/svg" width="720" height="238" viewBox="0 0 720 238" role="img" aria-label="coba dusk colour scheme preview">
<rect width="720" height="238" rx="6" fill="#243037"/>
<text font-size="13" xml:space="preserve" font-family="ui-monospace,SFMono-Regular,Menlo,monospace">
<tspan x="18" y="31" fill="#9ba5ae">~/dev/coba</tspan>
<tspan x="18" y="52" fill="#9ba5ae">base </tspan><tspan fill="#ff5c7c">❯ </tspan><tspan fill="#7cbf9e">python3</tspan><tspan fill="#c1b8b0"> build.py </tspan><tspan fill="#7bbac7">--strict</tspan>
<tspan x="18" y="73" fill="#c1b8b0">built iterm/, vscode/, octarine/ </tspan><tspan fill="#9ba5ae">(contrast ok)</tspan>
<tspan x="18" y="94" fill="#9ba5ae">base </tspan><tspan fill="#ff5c7c">❯ </tspan><tspan fill="#7cbf9e">git</tspan><tspan fill="#c1b8b0"> status </tspan><tspan fill="#7bbac7">--short</tspan>
<tspan x="18" y="115" fill="#a4947c"> M</tspan><tspan fill="#c1b8b0"> build.py</tspan>
<tspan x="18" y="136" fill="#7cbf9e">??</tspan><tspan fill="#c1b8b0"> octarine/</tspan>
<tspan x="18" y="157" fill="#9ba5ae">base </tspan><tspan fill="#ff5c7c">❯ </tspan><tspan fill="#7bbac7">█</tspan>
</text>
<rect x="18.0" y="194" width="39.8" height="26" rx="2" fill="#303d46"/>
<rect x="60.8" y="194" width="39.8" height="26" rx="2" fill="#e67665"/>
<rect x="103.5" y="194" width="39.8" height="26" rx="2" fill="#7cbf9e"/>
<rect x="146.2" y="194" width="39.8" height="26" rx="2" fill="#a4947c"/>
<rect x="189.0" y="194" width="39.8" height="26" rx="2" fill="#7fa8d8"/>
<rect x="231.8" y="194" width="39.8" height="26" rx="2" fill="#ff5c7c"/>
<rect x="274.5" y="194" width="39.8" height="26" rx="2" fill="#7bbac7"/>
<rect x="317.2" y="194" width="39.8" height="26" rx="2" fill="#c1b8b0"/>
<rect x="360.0" y="194" width="39.8" height="26" rx="2" fill="#9ba5ae"/>
<rect x="402.8" y="194" width="39.8" height="26" rx="2" fill="#ef5847"/>
<rect x="445.5" y="194" width="39.8" height="26" rx="2" fill="#a2d9b1"/>
<rect x="488.2" y="194" width="39.8" height="26" rx="2" fill="#bbae82"/>
<rect x="531.0" y="194" width="39.8" height="26" rx="2" fill="#a8c4e8"/>
<rect x="573.8" y="194" width="39.8" height="26" rx="2" fill="#ff99a1"/>
<rect x="616.5" y="194" width="39.8" height="26" rx="2" fill="#dff0eb"/>
<rect x="659.2" y="194" width="39.8" height="26" rx="2" fill="#e3ddd7"/>
</svg>
