<svg xmlns="http://www.w3.org/2000/svg" width="720" height="238" viewBox="0 0 720 238" role="img" aria-label="coba pine colour scheme preview">
<rect width="720" height="238" rx="6" fill="#21302c"/>
<text font-size="13" xml:space="preserve" font-family="ui-monospace,SFMono-Regular,Menlo,monospace">
<tspan x="18" y="31" fill="#8ba296">~/dev/coba</tspan>
<tspan x="18" y="52" fill="#8ba296">base </tspan><tspan fill="#de8da0">❯ </tspan><tspan fill="#8fe6c0">python3</tspan><tspan fill="#bfd7ce"> build.py </tspan><tspan fill="#6db3ad">--strict</tspan>
<tspan x="18" y="73" fill="#bfd7ce">built iterm/, vscode/, octarine/ </tspan><tspan fill="#8ba296">(contrast ok)</tspan>
<tspan x="18" y="94" fill="#8ba296">base </tspan><tspan fill="#de8da0">❯ </tspan><tspan fill="#8fe6c0">git</tspan><tspan fill="#bfd7ce"> status </tspan><tspan fill="#6db3ad">--short</tspan>
<tspan x="18" y="115" fill="#f2b573"> M</tspan><tspan fill="#bfd7ce"> build.py</tspan>
<tspan x="18" y="136" fill="#8fe6c0">??</tspan><tspan fill="#bfd7ce"> octarine/</tspan>
<tspan x="18" y="157" fill="#8ba296">base </tspan><tspan fill="#de8da0">❯ </tspan><tspan fill="#8fe6c0">█</tspan>
</text>
<rect x="18.0" y="194" width="39.8" height="26" rx="2" fill="#303f3b"/>
<rect x="60.8" y="194" width="39.8" height="26" rx="2" fill="#e8a08a"/>
<rect x="103.5" y="194" width="39.8" height="26" rx="2" fill="#8fe6c0"/>
<rect x="146.2" y="194" width="39.8" height="26" rx="2" fill="#f2b573"/>
<rect x="189.0" y="194" width="39.8" height="26" rx="2" fill="#7facc6"/>
<rect x="231.8" y="194" width="39.8" height="26" rx="2" fill="#de8da0"/>
<rect x="274.5" y="194" width="39.8" height="26" rx="2" fill="#6db3ad"/>
<rect x="317.2" y="194" width="39.8" height="26" rx="2" fill="#bfd7ce"/>
<rect x="360.0" y="194" width="39.8" height="26" rx="2" fill="#8ba296"/>
<rect x="402.8" y="194" width="39.8" height="26" rx="2" fill="#f0bcac"/>
<rect x="445.5" y="194" width="39.8" height="26" rx="2" fill="#d6ffee"/>
<rect x="488.2" y="194" width="39.8" height="26" rx="2" fill="#f4bd48"/>
<rect x="531.0" y="194" width="39.8" height="26" rx="2" fill="#96b4c9"/>
<rect x="573.8" y="194" width="39.8" height="26" rx="2" fill="#eba9bb"/>
<rect x="616.5" y="194" width="39.8" height="26" rx="2" fill="#99bdb8"/>
<rect x="659.2" y="194" width="39.8" height="26" rx="2" fill="#eafff4"/>
</svg>
